<mxfile host="app.diagrams.net" modified="2024-05-28T11:43:25.042Z" agent="Mozilla/5.0 (Windows NT 10.0; Win64; x64) AppleWebKit/537.36 (KHTML, like Gecko) Chrome/121.0.0.0 Safari/537.36" etag="A35hO6yrisGF2jbNiMjs" version="24.4.9" type="device">
  <diagram name="PÃ¡gina-1" id="4ATuCp20aKMJvoxGTvVG">
    <mxGraphModel dx="1434" dy="782" grid="1" gridSize="10" guides="1" tooltips="1" connect="1" arrows="1" fold="1" page="1" pageScale="1" pageWidth="827" pageHeight="1169" math="0" shadow="0">
      <root>
        <mxCell id="0" />
        <mxCell id="1" parent="0" />
        <mxCell id="z3Stc2P_Pukjor2fuixF-1" value="" style="rounded=1;whiteSpace=wrap;html=1;fillColor=#4D4D4D;strokeWidth=6;shadow=1;" vertex="1" parent="1">
          <mxGeometry x="284" y="100" width="259" height="440" as="geometry" />
        </mxCell>
        <mxCell id="z3Stc2P_Pukjor2fuixF-3" value="" style="shape=image;html=1;verticalLabelPosition=bottom;verticalAlign=top;imageAspect=1;aspect=fixed;image=data:image/png,iVBORw0KGgoAAAANSUhEUgAAAOAAAADhCAYAAADRcblEAAAAAXNSR0IArs4c6QAAIABJREFUeF7tXQdYFMcX33IFFDX2buxRsYtBpSiCgqhYSIzYEBuxF7Ci0Ri7IvZusGOIFUVFUCyIGrFrLBg1YjfGCld39+9bd/iPmwPu4IC74/b7/Djvdmdn3sybefX3SMJ65TsFDh06JL98+XKJp0+fylJTU8kPHz7YaLVaCjr2/v37IhRFUSRJcgRBqOA7iqJkBEGk0jQtlUgkCvidIAhaIpGQdnZ28D1nZ2dHw/3lypVLZVnWpnDhwqk2NjayokWLaipUqPDBzc1Ny3EcKbSb7zQoqB0gC+rA82PcW7ZsqXLy5MmSaWlppe7du1fvwoULg0iSlHEcBwwEc0HRNC0hCAK+AwaiWJbl/wr9BSb84qIoiuM4joB/QhssQRDAWfCPhQv+TxAE+stRFMXSNA0/Mba2ttdr1Khxtn79+kmFCxd+U6NGDUX79u2fNWnS5G1+0KigvdPKgLk047GxscUePHhQ9siRI7UOHTr0k1KpLENRVGE4jeDkommaVqvVNBxBAuMgJvqiR/CzwFwG9fRzs58v9PkzL/IXYmROLpdzKpUKftBKJBKGYRg4GTUymexj7dq1N/bp0ye+Xr16z2rXrv1PnTp1PhjUCevNWVLAyoBZkkj/G8LCwqru2LGj6b179xw+fPjQRavVliJJsgjHcTKZTEZqtVo4kjKkOTAKzjjwZoxp9O9IJnfi70AnJ0iw8E+r1fJPggjLMAwnnJIqjuMUEonk30qVKm13d3c/EhAQ8NjZ2fmpUTpUwBuxMmAOFkBiYqLt0aNHy+/bt6/Z1atXh5IkWYtl2RIEQUgFcRLkQxITEQmZTMYzFSx2qVRKaDSa/5x4/BH1WaTM8vqs/v3/fvFz8Dv+/qwalEhAAibSmRFjSDglWYlEomYY5iPHcXcGDBgQ0rBhw0djxox5lFW71t91U8DKgAauDDCY/P777zXCw8MHUxTVmiCISizLFpFKpRLQ1xiGIXUtYnSy6WIsXWImOpUYhsm0hxm1h5+k+CmK3gV/4R1ZtQ/3oOfRs6BDwj+tVqumafotwzAPKlWq9FtQUFD02LFj7xtI0gJ9u5UB9Zz+vn37Vrl586bL1atXRzEMU5OmaTuGYUCVA6b7ohV0KsHCpWk6fZEDYyIxD04/+AwMBAsb7oPP8Iy+px+8FD8BdT2HM5CuoaLf4S/qH/QBiarwGb5HY4Tv4Tv0HBh7KIridUeapt8QBHHR29t7do8ePf7u27fvMz3JW2BvszJgJlMfGhpaefny5d4PHz7sSdP0NyBekiTJn3RyuZxQqXivAH8hBsLFPcR8upggM+MKPJcZI+KnG850Yv1RLMqKT2GcyeBevE/ivqP/42Iz+gzPgWitVqtZjuNgN1JRFPWCZdnjwcHBy7p27fq3s7Oz1YCjY61ZGVBElKSkpELjx49vHh8fP5IgCAeCIMoIOh24A7JFL3zR4joZEgOhC+iEwU/CnB4L6GRFpy46yYBpUT/gfeh3dKKiE9CQk1hHX3nLKkEQaRRFPaxbt+7KoKCgmAEDBqTkdFyW9Hy2FpQlEQCNZc6cOaWjo6ObnzlzZhJBEA3lcnkhcBMIPjqjDBk/NYEZYKGL9Sv0ImAeuF+pVOr17sx0TLEhBu6FTUGtVqef3uiUxkXNHDIg37ZUKuU0Gg0jkUg0Wq32Sa1atUJ79+59dMaMGVZdMbs7ul4rwkxuCg4OrrZo0aIBtra2PkqlsgbHcTYkSQLjGW0EsNiB0WBxw+JHuha8QxDd+HfB93AviLY4Y2bWEXE/xWIorr+htlF7WVlIs9If9SUQGi9JkqA0a7Va7RsbG5uTgwYNmu3r63sLonL0bcvS7iuwJ+CwYcNqrlq1KoggCDepVPq1RqOB8C6qUKFCRFpaGj/PNjY2ep9A+i4M3CiDmE8sdsLCB0bKykKJREZdboaMTkQklsI74ATELJu88Qf3CRpjE0Lt47SUSCRgQQVd8T1Jkn/8+OOPk1atWnW9IIbFFTgGnDx5cr358+dPIwiiNfLZQSwlbqrHmVBfxsroPiR24oYV3E0BrwY3HsuyfLgYOL/BCS6Ek6WHj2XUPsYk6RE1WOgaBNrABePjQ0pRIABN0/xneB76Bn3CjUrwvswMRYbQBW8ftwQLUTgQgfNRq9WeGTVq1OSlS5feLEiMWGAY8Icffqixd+/e6Wq12oMgiFIS2IZZlo8Eg5MGMQgySuCioSGLLaN7QRcCJgPm+szvrJYkSThq33Mc9x78aVWqVImrWrXqnyVLlvy3WLFiacWKFdNAVArHcTxTwme8ffA5on7CWLRarUShUFAKhcLmw4cPcrVaXejdu3fFUlJS6j979syVJMlCEGfKsqycIAj4DGFxcoZhwPvOMyhiUiMZYr4INtAlUQC9YbMBN4ZEInmn1WpPjBs3LmTx4sV3jUF3U2/D4hlwypQp5VesWDFIoVAM0mq15T7bBaQkMkAIhoL0iBS06+M7dTYnkT/RMHELfBZgik8lCOKf4sWLJ7Ru3fp3Hx+fl5UrV35ftWpVZa1atf7v18jmSzN6DKJ2KIqSsiwrUalUsuvXrxc+f/586aSkpG///vvvPkql8iuCIOwoipKTJAlMCZkWoLChQPEc9UjMfIULFyZSU4EU/78En6KGYZjXFStWXDV06NDNU6dOtWirqcUy4Pr168sGBgb6syzbSyqV1gEdT9jd+RkX6z5IlMPFrmwYIYDpQLcBowKsrn8Jgvi7evXqe9u1a3emQYMGb2vWrPnBy8sLvje56+jRoxWuX79ul5ycXDouLs773r17XQU3TGEUXicY7gxaN7jeC4NG/0d+SKR7giQi0BxEEw3Hcc+qV6++bOnSpVs7d+78j8kRzAgdMoiQRnhfnjTRqVOnbw8ePDiXIIhvBVELpfNk+H5xiBZyhIsZEhoQBUiD3sYzHcMw7wmCeFqtWrWIb7755oSbm9uzTp06vbS3t/9s7zezKz4+XpKcnFx99+7d1f/555/mly5dGsxxXFGSJG0hXQp0S4h1xTc0ZPxBbg6xc9/ASB9QXFUsy97x9fUdvHv37iQzI2GW3bUoBgRxc86cOVMJguhGkmQpELmysiTioqb4xENiExhSQGRFsZMgKtnY2GgUCoWCJMnHHMeBmBQ3bNiwQ35+fs9dXFwgJMvirvj4+FJ37typuGDBgq7379/vRhBEeYIgigqiLS+q4qddRhE7hlh5gYhSqVRLUdRblUq1a/369TMGDx78wlKIaxEMGB8fbzd8+HDvW7dujec4rr5gWMjW2MQxkTDRAmOCeKm1s7PTfPz4EcSha05OToudnZ3/atas2b89evT4aCmLQt9xzJo16+srV64027Vr13wQVaVSqa1Go5FA6hVkeeBuDGBMsbNfHz0bO0F5RACSJO81b9580vbt2+NyU2fWlwY5vS9bizSnLzXm8yEhIZXnzp27gGXZ9iRJFgPRSLCs6e1Hg/5klLIDWeUcx2mlUukbjUaTTFHUEVdX1/3Tp09/6ObmVuCYTtfcXb16tfCmTZvqhoWFzaJp2oFhmCJgZQYDDgq3wyURXXGzma0J3IAjl8u1KpXqY+HChQ8uX758irmHtpktAx46dKjo+PHjO928eXOiRCL5huM4sNwRdnZ2xMePn/nCEFcC7rgWjAMMx3FqiqL+ZRjmmqen54wffvjhwYABA14ZcwOxtLZWrVr1zZEjR1yjoqJmEwRRBKZBwKxJTzbOSi3IiCaYigCuHDXHcQ+8vb0HRkdHJ5orHc2SAVeuXFluzJgxC7VarTfHccXAsJbdCcCZVNBfwPkNjPeiWLFi27y8vCKGDBnyt/W0M4zCJ0+erLxmzZpvIyIiFoPflSAI8D3yeiIwEvK3ZhVtg1tM0b2YYx90wzelS5deunz58hU9evR4Z1gv8/9us2NAf3//Gps3b95AEEQLmFTw6YG+gVvbkMiij46BpgBy2sD0zTDMv1999VX84MGDf164cGFy/k+Reffg6tWrZcLCwhx27ty5RKlUgtHGRtgweUbUB3IDhc8hCyrMK8w5SoEiCAKMYYkhISFDZ82a9Zc5UczcGHCcXC7/UaVSVQXjmNiCCYTXZ0LxCUJRKQRBvKhVq9aiAQMGHJw8ebI1Uj8XVnFISMi3K1eunPb27VvnQoUK2aWlpWWZ4oWYVLyZ4tZWQIYjCELDsuzjKlWqzHj06NHWXOh+rjRpFgx48+ZNmbu7+8yXL18GsixbFEQZca6bWIdDLgNdSbHYzgkizEeWZS8sWLBg5IQJE6wnXq4ss/83CnO5du3aBqtWrVqj1WprQ3gcx3FgOU1PjxLHoOLMl5FTX3gDQ1HUu8qVK6/etGnTEjc3N5N33ps8A27evLmiv7//RoqiXFiWLSQOlBYDG+GThyYOmBF8eQqFAkRViK0Ex/lHiURyftasWUGOjo53CnJKTC7znM7mwVo9ceLE5osWLdpIEERVAa4RcFF58RJFx4hTqPDGcGZEKV8QbwsobgRBXFq/fr3f4MGDH+fH+PR9p0kz4KxZsypOnTp1l0QiaaLVakGJT7+A4DBJkM2Nux3EeoUIVAhCxNQkSaYMGDCgd0hIyM1q1arpl/GqL0Wt9xlEgQcPHtgMGTKk2ycc1TCSJEsgQGJdjaCAeZTHmFEys42NDadUKsGQdjc4OPj7BQsW3DGoU3l4s8kyYEhISMV58+btJ0mygVarBVN2un4ndi+ImQ4mCp2EQnwhyj54UbRo0Z2HDh1a5OTk9DIP6Wx9VRYU2LNnT+3u3buvkEgkzbVaLbgvaCTdwPyi0DY8ZhdZUvH5x4O8KYoCzMen7u7uvWNjY8+Y4iSYJAMOHz7869WrVx9gWbYOGFvwJFFdWJpAWBA3UZKpiNAoMDpp3bp1w4YMGVIg0lxMcbHp06fQ0NAmEyZM2MUwTAXwIWK5jfzjMM/AhCiFDCHJ4UwI98AGDKIsRVFalmVft2zZcmhiYiJs6Onw4Pr0J7fvMTkG9PPzs4+IiPidIIhaEE0BBMBBhXBAW7HhBe2OwKSg66nVao1UKn3m4uIy4BO62R/29vbWyJXcXlFGaP/cuXNlhw0b1u/y5csTJBLJV2CkwTdXDOKCZ0akC4KeD0wHoikOgAwZKiRJvnVwcAjetGnTDlMKjjcpBvT09Gx69OjR3yQSSTWtVksjS6au4N2MTkJBPAUjSxpJkjdWr17t/+OPP1qtm0ZgjLxuYs6cOXVCQkKiOI6rAqchVH+CDRjPXEFiaEbrAesznHzvy5Urt3HXrl0/mwpMoskwYPfu3ZsfOHBgp0aj+Rrkf11wCLjuh4scomgJkPtfdOvWbejcuXNPWguK5DXbGPd9p06dKj1lypQhCQkJEwmCgLxE3gWFrKS43xetA3FGBpKMZDIZSEWpFStW3HDw4MGfTaEClEkwoKOjo/f58+dXA8y7TCajULY6Qo+GKQUi4iKG2ASt0Wj4EDKJRHJ7+PDhPZcuXWqyli/jLtGC0Zqvr6/37t27wcFeTCqV0nhNDSSS4tZwMXAyUElYM+C0V8jl8phLly71zG9xNN8Z0M3NzTM+Pv5XgiAALoJCxBRHPoijXhCWi/A9iJyppUqV+n3u3LmQL2bSvp+CwTLGH+WGDRvqBwYGxjAMA6Xe+NJuuhJ8xUnU8H+EcSPoh3ASQvja4VOnTg3Oz/zNfGXALl26OO7fv38XQRAVxMhkYkZEJ54OMRSsnABqtPPevXtBVr+e8Re+KbV47ty5oq6urmfVanV1sZUUrZGMNnEYB2JOW1tbTqFQpJUtW3b7/v37x7do0QLQDPL8yjcG9PDwaBEfH/8bx3GVpFIpBZB44vAyMTUQ8ZAoASCv4Ofp1avXd1u3brU4uII8Xw1m9MIffvjh+8jIyPUcx/ElvMEmgAw06MRDw8HdEiIfMoijYKw7fOHCBX8HB4fPgLB5eOULA/r5+TWMiIg4ADqf2M8DYxfXMEDiA9IFhQqvwHx/T548ufPcuXNv5yHNrK8yEQp8KofWPCws7DDLsoDoxhvuxJD7sFnjCHjQdQQxgjZyjuNSv/nmm6lr1qxZmdchiXnOgP369au9ffv2IyRJVgFXA1KWcasm+oxOPEgvghNSsGZBMiZEvv+1cOHCjuPHj39gIuvB2o18oEBoaGjt4ODgExzHQRGd9LxQXcnYGSGdS6VSQOp+W7Vq1YkPHjyAVLc8u/KUAceNG1d58eLFxwiCAPmd9/MhYwqMODMoCYEZOajQShDE3ejo6I6enp4WjRmZZ6vAzF906NChSj4+PucZhikLsaRiA16RIkWIDx8+V0dDaw7Wk6gqFGRS/OPq6trj+PHjp/KKJHnGgPPmzasyadKkQyRJfgPVZHGxANf9RHpeutIMqNAsy6rt7OyObdq0KdDX17fAWDphUZ06darC3bt37R4/fiz9+PEjAOyi3R7C/yFNRFumTBlV9erVFQD0awo+rrxaxPCevXv31hgwYMCWN2/eABQlH0Gly5csyiPku4gdAlA85vGAAQPar1+/Pk9CFvOEAbds2VKlX79+ByQSSV2tVsvHduIOVLxWghjER4hw4BGxCIK4nJiY2KlVq1YmCWxrjAX3/PnzwmfOnCn75MmTMr/99pvzmTNnAgH6T4B04GvP6wDH5WtJYKDAICVAlser7777bqa3t3eynZ3dv99///1LU4uFNAbNUBvXrl0r7uzsHPX+/XtHiCHGHfMoZhTdqytPVDghIXb03ty5cztMnjz5oTH7p6utXGfAI0eOlPDy8jpIkmQzjuMguDa9OCQQBQ8hQnK7SAfkpFKp+quvvoo+duzYoIYNG1oc5ibHcdJPTuYaS5Ysaf7gwYPvnj17xuc+CmXSEKgwzJU+84XqR+BMqZJIJO/Lly8f1ahRo4P9+/dPrlu37t/57YTOjcUNTOjm5rbr9evXrjRNS3DGwzd6eDcuqqJ1KKQ8ASr3tUOHDnXw9vbOVRAufSY0R3QqUqTIOqVS2ZdhGMACST/5xOFCKO4TvQwUZrVaDcynUqlUN44dO9bV3d39SY46Y2IPJyUlFdu2bVu9ZcuWraEoqgowHawLoYKRsecGVV8CtDdFoUKF/hg+fPgsb2/vB61bt7YoXfrw4cNVO3funKDVassCPcUGGVh7sN6EbIn/pLkJoquyfPnym549ezY0N5eNsSf5i75SFDWRpunJGo0GkMvSKxBlFGQNA0eAO4JIBXGdN65everaqFGjLyt55CZVcrnt+Pj4rwIDA3snJyePlkgkFTUaDRRESYd5FzuUc9IdXJpAtJVIJHyVJoBdFGr0nY6KiprcuXNniwlav337dpE6der8KURYSZCBD0XOiHVBpAciqzzQSKvVfqAoag3LshCHmitXrjFg3759q23btu0Yx3Ff29ra8vGdkMOFjnqxricSPwFdV1O8ePHYHTt2DGnfvv3TXBl9HjcKURwzZ850i42NXaLRaMoL4LXppnOgDdAoI5Dg7HZXDOMh0sH52hZQIq1bt25BY8eOjXd2dn6U3XeZ0nOJiYkVfXx8fgOdEEq3IbsDHieKG/3EYW2Ce+L5mDFjvMLCwq7nxthyhQEXLFhQbsKECXslEokDDBx1XMjT4/+LW0HxbAYhigFOvvvx8fEebm5uFmHtHD58uOPKlSs3yGSymmq1WiaceOkbEr4xIXplhZmp74JACc2oRDba7YHuyFEtlFGD4IY3I0aM8B88eHCCJUgdsbGxVby8vM5B/KgYPxZtRLa2tjxeEJLSsCpN8JVGJpPdWrNmTafcQOE2OgMCYrW3t/c2uVzeXqVSydEgxZZPGJk4hwvugZOPIIgnu3fvbuvj42P2TvZNmzbV6N+/PwSbNyZJsrCAeZLuj0JGAryOPL5h4VH/+jIcfh++uMRmeXHAg7ARQlaJhqKohzt37vy+R48eubLzZ2cs2X3m4MGD1bt06fIHSZLFAS4fX5NI2kDRV3gkDTLSyGQylVqtPhUfH+/j5uZmVAwhozNg2bJlR7569eoXlmV5vQ9deHiZLiQzuA9qMEBs59KlSz1Gjx5t9vpI//79m2/evDmSIIiKYAyA6H1d4iUSiRCDGAIorM+ixCUMpH+LzfC4TiR8hgyTDwMHDgzYsGFDlLm7L9asWVNv2LBhCcK6TGdCoJ+ujQi+x05CUIk+Ojo6BiQmJu7Wh+b63mNUBhw4cODXGzdujKUoqgaMC8ncoN9B1AH8H8f0QJ0UJhyY7+XixYvbjxs37qa+AzDF+6CMV/v27cM0Gk0HgiD4OEVT7KcefUKFMu8nJCR4mbtuCHgzQUFBpwHbMi0NYrA/J/aK1iH/X9xyCp8ZhoEy4S8nT57sPnfuXDDuGOUyGgNGRkaW6Nev3y6lUulEkqQMx/FHxTjEO7swMH5wMpnsTc+ePdtt2bLlslFGlk+NCEEHEQRBNBPSZYxG43waEnLwv1y2bFm7UaNGGW3x5cd4vvvuu0G7du0C9DWZVqslUdI3Wq+4gQYOBtyPaGNjo1UqlclxcXFuHh4eRqlRaLTFQVHUfJZlh0GdcRT0CjsMnhqiK/oAYMU/mXkVjRo1mnj16tUV+TEpxnrn9OnTK8ycOXMvx3GNbWxsZEqlUdUFY3XToHYw1QEklNcLFizwnjBhwiWDGjGxmytVqvT748ePuwhlt/neIbUIPyRw8Cf4DBIcwzDKSpUqLXv8+LFRXBNGYcDg4OBqYWFh8QzDVKFpmkQnHjriM4MdB4No8eLFjyYkJPiac2RGz549K/z++++7GYZpStO0LLsluExsraZ3R9CTQC98GxAQ4BMeHm62JcGSkpIKOTg4/E3TdAmGYfhII3FgCHyHTkWx2wY2onnz5rlNmjQpx6pSjhkwISGhSJs2baK0Wq2TRCKBWEV+p0D6HkKuRiZwZGUSjneIu3u8d+9et27duuV63F1uLe4ff/yxzIYNG/YyDOMgl8v5ky+r5OLc6oux24XFh+ZU+MywLPtuyJAhXdatW5dg7PflVXvh4eGNAwICTlEUBZZpCIJIN8aILfaYcx5lUIA08AfHcc5gV8tJn3PMgLVr1+579+7dVRRF2eEB1igFRFdEutBh2E3fTJkyxX3OnDnXcjKI/Hw2ICCgdHh4OMDntwAEb+iLIYVB87Pv+rwb5g8/DYTTgmEY5t3IkSM7AN6qPu2Y4j2BgYFea9eu3QMl05CFGg8QwXVAxITCd6A2fWzWrFm/ixcv7svJ2HLEgCtWrPh6xIgRcTY2NtWVSiVfWAM5fSGBFi7EgDgjQmoRwzCp3bp167N37979ORlAfj67cOHCMpMmTYpgWdYZ+A52UdB/wXcHJ74lMSLSkdCYZDIZo1ar/1m8eHG7cePGma2vsH379pOPHj36s1QqlSKfK1qrsJZxt5EIlwhSl1I2btzo0b9//2zXJMwRA1IUteFT6kYfSJXRldGOK7TIICMMSEPT9DWtVvutufqXYmJiynh6em4mCMKNJEmI5eTF7swCD/Jzs8jJu8XziGWxgBTz9NixY27u7u7ZXoQ56VtOn4XsiSZNmtyAZF4aTgaO+2IeoX0c9lBk0VfTNH2IYZhu2e1Hthlw1KhRVT6ZpaHgBTiZM2wHd7oL1lHYOV7t2bPHpUuXLvey2/H8fC4+Pl7i5ua2lqbpngzDQAZDgb2gqjDHcXcuXbrUtmnTprmaupNbRF62bFmjcePGndVqtZCxw/sH4bTDM+YzeDdEDf0zefJkt+z6BrPNgDRN/86ybBfIZcuKMAgEB8LvCxcu/KFNmzZdo6Oj47N6zlR/r1GjRv+nT58uVCgUJfXM0TPVoRilX1KpVNmwYcOpFy9eDDVKg/nQiLOz89yEhIRgQGuA14tTlTLqEoROsix7jGXZTiRJgkRg0JUtBvTx8XGIioqKpmm6NMMwmbYh0gE1lStX3pCSkgL+QrO8hgwZUmXdunVHKYqqheAUzXIgxu00YPV86NmzZ6dt27adNm7TedNacnKyvFatWuBch9JoPPw9lhqXWSfACvquffv2PY4ePRpraG8NZsDExETbVq1aHZLL5U4qlSrL0w86hHxIJEn+u23bNqfevXubZZzn9u3bi/fu3RtiAcH8LDVWtoKhk2ZK9yOdF1KaSJJ89ttvv7X29fW9b0p91LcvS5YscQ0ODj4KyA0cx/Go21ldgnUUxn7r7NmzToYC/BrMgMLpF0MQRImsOocxHwSzKpydnX88efIk4Pub5dW0adPAS5cuLSYIopCu2gNmOSgjdBpFPtnY2Gjq1Kkz+8qVKz8bodn8auI+TdNVGIbRK35XMNDAKZg6cOBA940bNxrkljGIAWNiYgp/YsCDKpXKWYy3kRm1AMG6UKFCp86dO9fFXGv0+fv719i8eTOIGF/TNE2hwALrKfhZwoEL6rNDHb6RI0e6Llu27EZ+cVBO3gtJvK1atboFIZX66veCoRH0v4vx8fHubm5uetehNIgBe/bs2eS3336DLPfieOhOFszH+/xmzpzZ5qeffrqYE+Lk17MQKUGSJPgrPWmaluKZ/fnVJ1N7L+aq0JIkefXJkyeuFSpUyHOod2PQpXv37n0PHz68XqFQyPVpD52CkLLk6+vbKTIyUm9cUb0ZEHQ/FxcXqEzTMjPcRR0dhiq1VzUaTXN9BmOK90Dtwj179gCadwk8ZMnYeXumOPas+iQO20JBFkOGDPFZt26dWVq6k5KSpM2bN/+b4zgAdUKodBmSAgsyAXDfW4mJiXrrgnozoK+vb8P9+/dDwDW/COHCw5TEKNdCb0GLfbdlyxbXfv36maVIEhkZade3b99DGo2mJcuy6fAaaPxWEfT/IigWNcIvxMePHzua6yk4a9Ys559++glsHYVwYwweJSOI3enBFxC/LZVKU7t27drh999/1ytOVm8GlMlk0Wq1uv3nwAAJ/1KE64Lvgih+Tgjj0VSrVm39vXv3hme1k5rq7x07dnSJjo4+SFFUUXF0vJX5dGcRQIoZwzAfe/ToYZBQ/gzfAAAgAElEQVQ4ZoJrAGKU60GyhACTyUfJ4LVK0NrH6k5AoMml27dvu9SqVetzPGYml14MOGnSpJrz5s07Q5IkFEbk4xzxC+mDIqgJOP3erl271ikwMNAsqxfFx8fbeXh4gNjtCCC5OJyisZHLspooU/1dF9aP0FfIGLh6/vx5T0dHx9em2v/M+gURMqNHjz7DcRxEO5EwVjh80MEjTmGCNQEIdAqF4v2IESM8ly9ffi6rcevFgBUrVpz58uXLiRqNRoYHqOJ11/DkReiIra2tsnXr1oOPHDmyLatOmOrvwcHB9RctWnSapumvdOX36WuIMtXxGatf+MaLwfzBKfhu2rRpXr/88st5Y70rL9sB41vNmjUjXrx44fvx40d+A0bxvmgDhjUAY4awNWwzghPqanx8vGNW5c6yZMCwsLCqQUFBZ1mWLSuRSEj0IhzaDi1OzDcGp9+r6Ohox44dO/6dl0Qz8rsO0DTtxTBMuu6nKz3HyO80u+ZwUCM8egTcTyzLxnMcB6qLWV5QLmDs2LEnOY7j40TRWHX5gTExlJPJZO9mzpzpnFXSbpYMWKVKlRkpKSmTIcsbuB1VssX1H+gMMCFKvpXJZGqFQnECzPZmSXWCIDZv3lzR39//D4qiygNUvBhZTFdtcnMda076jUsBeH0FYVOGjfjl7t27W/j6+przRnzD1ta2DtSzhBhRXaInoiFiUIlEorG1tV3x4cOHcdnWAffs2VOme/fuUPq5EoKawI9cXfFyAsDru127drX67rvvzFL3A4J9ypZuu23btmghQp4XL3CoDRzrJicL2NyfxZGlUSoPHv8rkUjS+vXr137jxo2QOWOW14YNG5oMGjQIrJpQMOcLnCMYkC7dkIWoBI57tH///hZdunTJEMAp0xMwICCgVXh4eKxUKi0EnI+g0/G8N+gAzogkSaqcnZ2DT58+bbYAS0Jg7nmSJOsDkC6u4+jKjTPLVWXETotPQdioYI1gcJPnkpKSPPOjBrsxhglxoU2bNl13+fLlAQAomlGMqI40pg9+fn6dIyIiTmbUj6xEUDj9GmeFa4n5AEHkeLNo0SLn4OBgsz394uLiqnt4eEDUDoALZ0UjY8yxJbcBTuOXBw4ccDHn4i8//fST28yZMw8BfIUBxjctTdNnGIZpYzADLl++vNq4ceMuaDQaCLrOcBHiUBMURYHSDQu3hTmvKC8vr55HjhzZbInoZvk0LwofH5+eUVFRUfn0fqO8FiAoGIapAFInLg1m0jhvjFy0aJFjcHCwTh04Q8by8fHpHhUVtR04PlMlUkAXtrGx4dRqtSI4ONh9wYIFWfo/jEKR3GvkCkEQ9YUCmbn3lgLQsrBBg0/wLEEQruY85LFjx7ZfunRplFQqlYMxMhMfaPow5XK5okOHDp337dt3TNfYdTLg1atXCzdq1OgCTdO19U3LACh9uVz+4uTJk01btGhhFNTg/JgsYeyQklIKYUbmRz8s5Z3CIoWTIOXy5cuNzbl2fUJCQgUXF5ebHMcVk0qlpJ6Fc8AneOHBgwdu1apV+w9Ss04GnDdvXqMpU6acYlkWsoOz1IHgOOY4TlWtWrWpycnJi8x58WzZsqVa//79L7MsC3XZsxy7OY81L/ouMCAnl8tfb9q0qamfn59ZV+O1t7dffOfOnZFQdk+fExDiQ2Uy2b/z58/3GDt2LEhWX1wZLbCDUqm0vUajyTLjHStp9e/OnTudevbseTcvJja33rFkyZKGnwoyniNJ0tYa62kcKgN4LUmSHxYvXvztmDFj7hin1fxpJSIioomfnx/AbvDhaVn1QrCgQ8m9AwRB+GbJgJB21KZNm9tarbYSy7JZpmJAg+B0LFKkSHRCQsIP5gwvD2MZO3YsVEONApRvPVCxsqK/9ff/Y8OmTZkyxWnOnDn/OQXMjUhVq1bd8fjx4x7gmNez74yNjc3Dixcv1hPzx384ODQ0tHZQUBCk1RfVR84VamkrRo8e3Xbp0qVmGfOHE7FNmzYTT5w4MTsr14uehC/wt2GRIequXbt23bVr12FzJ8qkSZOaz5s37wRFUV+kKmU0LiFH8u2CBQuaT5gw4Qv81P8wYPfu3b/bv3//NoZh5Hr6O3jf3+7duxv7+vqafTnpokWLxqalpbWFSqrmvlBMpf+Cn1hbp06dqTdv3pxvKv3Kbj/i4uJKenp63hTKXuuLCqgcOHBghw0bNkCIZvr1xcMC9ALocNXkcjmF4OUz6+hnRG8N5E05ZHdApvScTCb7R6vVloD4z0zqWphSl026L9gmzhQqVOhmampqc5Ik1Sbdaf06lyiTyb5Vq9WZiqFY7ixYQy9zHAepbelwa18w4JYtW+r269fvHCSf6gPJBhYegiDS+vfv32HTpk1miQf5H6WYJN9yHMdbQK0MqN9KzOwuLC6U4Tju4fPnzxuVK1cuNect528Lc+bMaTllypQ4wRiTZWekUikUdPknMjISAtPTYRu/YMCWLVsOOHv27Gqhsms6Jn4mrbMSieRpVFRUS29vb7MXP2/evGlnb2//FBCxULWcLClrvSFLCmCW8kdPnz61N1eYCnyg169fL9ugQQOo5lwuM2sonkXDcZxCiLJKjwj6ggFLliwZ9fr1a2+pVMqnXehxAmiqV6++IjIycqKDgwOYWs36Sk5OLlqrVq0nBEEUpihKL2BWsx5wHnVeMMXzzvjnz5/bW8IJCKRzcnIaf+bMmTkIpCwjcgp+ckjXY77++utf//777yHo3nQGPHjwYPFOnTpBAHUphASlhxFG6eHh8V1cXFx0Hs1lrr7mr7/+KlazZs0nAEGAV/rN1ZcWgMaFjRwY8HFKSkqdypUrKyxh2P7+/q6bN28G4KZMwzUxhz1A+L+Ijo5u5Onp+RJokM6AixYtqjdp0iRwQBdBoLNZlFkG/e/9kiVLHM3duYoWw4MHD76qXr36Y2BA6wloXBaBLB6O41Lu379fR1dIlnHfljetHT58uGqHDh2uCvUkdFpDYfOBmopY7OjHVatWOQ0bNowvSpv+kIODQ78rV66shyqveoie8CzsaM9u3brVqG7dumYJuiOeJvwEtOqAxlnEGGo2mJUf3b17t44+aGHGeXvutgJ5giRJgsqSJX4olris8vDw6BcTExP5BQMSBAERCg3whEMx1qdIJIUId7NPPcKniOM4iO97A1XUrCeg0RcvmOEfJicn21sKAwKF2rVrNyU2NnYmRVG0Ls8BjiEk8A/Q4U+CIBqmM+Dp06eLu7i4gP5XWrzwcMgB/oH/V4JV+Pv7tzNnqAHxEgMGhApOViuo0ZkPGmRkMtkdlUrViCRJ2Lwt4poyZYpbaGjoEZVKJYMB4QHaYkkSK+Ty7I8//mj27bffPudFUMh+mDx58mmO44qIH0L/F2F+gv73ZuXKlY7Dhw83yyq3umYfGFAqlb7SarV8JryeorhFLKTcHATKCSxXrtzq58+fj8rNd+V12zt37mzUu3fvRKiUjECp0UkozpYQ6AC883bOnDnOU6ZM+ZNnwD59+vhEREREsiwrhwwAdGzCb6gWAsoMgL8AvMSy7LPDhw83RdacvB54br2vTJkyp/755x9naySM8SgsrCdN06ZNJ128eBHKu1nMdfny5a+aNGnyUCqVFtVqtSTOPxll05Akmda3b98uW7ZsieMZsE2bNpNOnDjxC0VRwFnpxBG7IcCaI6ACQ0HCuxzHAWy3RV1OTk4zz58/H2KNBTXutAJYl6+vr88ntLyjxm3ZJFqDIJTyyH0HoiZceDYNkqYEo5Ta3d19eGxs7AaeAWvUqBH9119/eYkRn3AUbBx8leM4rZ2d3a6PHz/6mcTwjdiJwYMH9wwPD98KCZdGbLbANwW7/oQJE1rMnz//uqURo1q1assfPHjwo9ghjxtgROIoBKbvuH37tj/PgLa2tu8VCgUffoXjXeI6EF7/AXYzb2/vbvv27TP71BLxYpg/f/63EydOPElRlI2e8bCWtp6MOh5M7/mwZs0ahx9//NEsy5NnRpRBgwaBMfKgRCKR4TAVuE6IMyO48GxsbP5RKpVlkR8QIhN4b74Y9RdnSOy3tFWrVrVEzkSjzlg+N7Zx48ZvBg4cmERRlJ2VAXM+GRgD/itkk5s1JIUuimzevLl2//79L6EiLmCwBPFTrAOiU1DID3xHEERxMjw8vNzAgQMfggEGi1xPf1gH3DhHUdSHo0ePNvnkUEyP6s75VJlGC2fOnCnj5OT0p1CMM0vIAdPoten2AoEyURT1LCEhoWGrVq3AzWNRl2CIeQA4snK5nERpfLgEKbaoS6XSj5s2bapCfvJhtAgKCgLk3kwjYNDpJ4QUvb148WKDpk2bQuaAxV0URd0jSbKaFRXNaFPLSKXSOxqNxt5oLZpQQ5BF06BBg/ssy5YUV9TNxJWlCAsLq0eOHj3aZ+nSpbtJkpRkcmTyUOPwO03TTOnSpaPPnj3rX61atbcmRAejdaVmzZqh9+7dA3+V1RCTQ6oKC1BTokSJbf/++++AHDZnko/fvHlT5uTklPD27dtmwIB4ChKuwkHnMYZUTpkyxYf09fX9effu3SEolEZseEEFN7CHte3bt58QExOzFM/sNUnKZLNT48aNa7F48eLjEonE1grMlE0iYo+ByhIQEOCxceNGwBqyyKtBgwahf/7552iWZWlgQFg3IsML/3+kB3Icpx40aNBA0s3NbVV8fHwgckHgD+mKigE4gYEDB/quX7/+oEVSkiCImJiYyp6enpBsmSksv6WO38jjghX5NC4urqWbm5vZJ21nRBsfH58hBw8eXAV2zMxiQtHzHMdpOnXqFAxVX7Zdvny5F5yOyIsvPjbxikASiUQ9ePDg9qtXr86w4ouRJzDPm4OKSOXKlYt68eKFl1imz/POmP8LtXK5/Ozt27fbW0oakq4pGTJkSNd169b9npHaokMX1LZo0WIxWatWrZPJyckuKP1GfGzCy+BIRTogRVGq4OBg5wULFkDlJIu9vv/++4579uzZDehwFjvIPBiYTCYDGAavqKioU3nwunx7xbhx49w/AQ9D9aR0YybuVYCOiWwsTM2aNXeTlStXPpuSkgJITenBx7pi2JA/hyRJ5erVq1v++OOPkIhosdf06dOr/Pzzz5CiVdxiB5n7A4PA41ehoaEOQUFBFuf/w8kXFBTkHBoaCiBNclHiAn8bfgIKEWZs+fLlD5BVqlRJfPToEZQTS69/LQKSwd8DGYhpe/fu/bZr166Q02TpF++OALhGNFA8pEjP2gAWTSOcBni0lOCIhtw3KGbiQJKk2WMGZTaR06ZNa/LLL79AFWBb8X26UpQgoaFSpUqfGTAlJYVnQHTyoQd0PAgM+PH48eNN3dzcLCYNKSPCli1bdvmLFy9+LFSokCQtLY2/zdbWllAoLALSxCgbQ2b10uVyubJ06dLzHj9+/LNRXmbCjcyZM6fe1KlT/2BZtjA68ZDYidMIi6lmS5YseYAsVarU5X/++aexrp1dh0UURIp3169fb9igQQOLFimAeFu2bKn/Ken4jIAT+oUuDL9bT8AvOQLFPgopbCzDMC/Cw8NbBwQEWFz8p3gvgJIOwcHBFzmOsxP/hjMg9hkqRr0gpVKpQqPR2IhlVLEpFY/pe/HihX3ZsmXNtgagvhsp1Aps3759xIsXLzrSNE0BDUC00hGep2+TFnmfro0ICvZotdrYpKSkrpYAWZnVxC1btqzGqFGjwHUFJf2+uMSHG2xQ3Gdx8xXEOkLRwPQ40Cx2dr7k7uvXr2uXLFnyfVadsoTffX19u+7bty+CYRg+WB2laMHfLFDjLGH4WY4BNiUdbitOq9W+69q1q8e+ffsAN8jir/Xr11cbPHjwFZIkiyJVDs8BxA80VDORIIjXYPnkGTATyydOPB4JjeO4r0mSBAXb4q/9+/dX6NKlywUh4ZLEfaIWP3gDB4hoI5FIGK1WeyM2NrZ1u3btIOrf4q/w8PCqAQEBV3EGxActDsyGmoksy77hGZCiKDnazXWJoth3LEVRjxmGqV5QGBCIWK9evem3bt2CcD0pfupZdcDP5nV0YSdhWoMGDcZcv359vcVznjDAiIiIqn5+fhkyYAZi6RugXnouINyka4fHFhqEFT1iGKZaQSEsjBPyvfz9/c8RBPEVCljQAzW8QJBIHLgBwfoURd0PDQ1tO2rUKIsNPRNP7t69e6t269btKk3TfGEjHEtJLJLCs8Kh9hbWUzoD4mIoIizSdQTGZGUy2d8qlaoGHKEFYoX9f5DHJBKJK0BVZCTbFzB6fDFctHFTFKVgWTaMIIiQgkSPqKioaj4+PsCAPLI8xmTpn+GDSNV7+58TUFcoGjyIEitJkvybZVl7gXELDI3HjRtXOyws7AxJkiWtiGn/n3aRxMRIJJK/QkJC3H/++ecCc/oBNQ4ePFi9U6dOwIB2OAPiDKLDzvJfEVQXA6I0CoZhwAjzN8dxdSykyKJBG0jt2rXn3b17d5xMJuPrx4MYimOAGNSYBd2MoYApKleuPDslJQVKfBeoa+/evTVABKUoqjCyeCILseB20EWPfyH8LI3jONvMrKAoGBvAZKDAxqtXrxqULl36Q4GiMEEQwcHB1UJDQ89xHFc6s5pwBYku2AkIUJX3xo8f33bBggUWiZSQ2bxu3769Vp8+fcAPWFiXzoc/Kxxy4Ap8DSIoVCstJJZZ4f8YDAWfDSEUZHmSkpLSuHLlyhaH7aEn4+ykabobwzA8FHlBvzB9GHS/eZ+0lZkFkSbr1q2rHRgYCAxYSB9wXqG69EtgQDjJ+PAZrJINT0MRFijPgCRJPr9y5UqTRo0a8fXNCtq1YcOGrwcNGnSKJMlKQKKM0I8LCl1gkwbLp1qtvh0eHu4REBDwvKCMHR9nWFhY3bFjx0KKns7DTIdqB0bM56RMJnun0WjSvfdi3xYOzguWT5IkX544caKJq6vrs4JIaBhzxYoVx7x8+XKWRqPhA28L+AUL6UOTJk0CL1++vLOg0gLqawYHBwMD8tkQ4kQGcbQQwLnQNP2MLFGiRGJqamoLlUr1Hwg+HVm8QOzX0dHRDh07dvy7oBL7yJEjJby8vA5TFNWUZdkCDdxE07SaYZjYQ4cO9fL29i4Q4Ym61v28efMaTJo0CTBv+LhqHQz3hQtCKpWyEonkHFmuXLnTz58/d8KrAeGnnoib+WyI8PDwbwtChHtmG8ygQYPqbtiwARIwy0skElIXCI8lbFBoE8bCzPCaB2AYeDBw4ECvjRs3Wnx6WmbzOW3atGazZs2CfEA+rhqP/cQTdDGjFVu0aNFEskKFCkefPn3qAXUBxWZ1MScLx+qHRYsWfRscHAz1BAv6tepTYEKAWq3+IpsEEVkul/Olic390iEJgd4HAM0fSZIMU6vV0819jDnt/+TJk1vOnTv3hC58XV1Jy6A3lytXbjdZtWrVmIcPH7aDE1AcXgULCYwMyLEo/J46bdq0lr/88ovFFdkwdBJWr15dZujQocdomq4LcHRC6bYvaGZom6Z2P1o8NjY2/GaCjE40TasYhjm+d+/eXt26dbNIfFhD5mL06NGuS5cuBYlIip4Tb1xAS/hO4CematWqu8mGDRtuuXbtWm8c/SuTjHhQLhUjR45svXTpUsgQKPCXr6+vw+7duwGisYxMJiOF8m0Wk6yrK+CcoiiGZdm7Q4YM8Vq3bt2jAr8IPqUIBQYGeq1duzYKMSBiPvwv+ixsYlAhaTXZsmXL5efPnx8KUHzY7vZFrhsuilIUpfH19f3h999/32sl/GcKlClTZsHLly9HkiTJ5wzChYJxLaHACxbnCUOD4qxv69Wr9+Off/4JMHzWiyCIbt269d63b98mqLIMBEHMpitoXzgJtY6OjvPJtm3bTj9+/Pg0QMbGQ2Z0uSOExcTUqVNn/q1bt2ZYOtCOvisrLi6upIeHRzRFUU04jpMhR6yl+AgLFy5MpKZCvAYBRrg0iqJ2JSQkDG3VqpUVHEdYJE2aNJl65cqVGXCQ6dKZdeAraTw9PSeQffr0Gbpt27ZlkImEP5gJMhrUNkv5448/mjRs2PCNvovU0u9bvHhxxaCgoKMURdVmGIbfBUFvUioh39l8L3xN2NjYqJRK5dHIyMj+PXr0KKiRUP+ZTGC6kiVLnnz79m1LlmXTa0PgN6IgF0GEgD8qf3//IeTMmTObz549+7RKpZLrAmYSv42iKMjkfXXlypWmjRs3fmK+S8v4PR87dmzNsLCwEzRNl0NGGeO/JX9alMlkarVanbh+/fqegwcPtng8IEOoDNWR7O3tkymKKgMMiER22LxQnQjUHubWUYSEhLiSW7duLR8QEPBAq9XyCNDgswArjS5QJsG/AdEw7/bt29e8S5cuBdr3o2uSatWq1Ss5OXmpVCotAXXmcV0Q9weZSjY9Hm6I+69EuouaJMmLffr06bl161ar0UU08XFxcWXbtWv3J8dxxWmaJnXlA8IjMpmMQEY6W1vbD4sXL25IQmkle3v7t1Kp1BYxHuJSMTMCZwNjsiybOnr0aDerJVT3Punm5tY9Pj5+AxRsJEmSZ0LcJ4h2SF0IyobsvLlxrw4LuFomk1328vLqExUVZd1wdRA9LCysenBw8DWGYQqLESXEGy0m0oP6VgKFn72DTF5INMUNCOKIGKxxVf369cfcuHFjTW4sAktos0WLFoPPnTs3H5gQ1YwDeqL8QV2Ken6NGzYC5O/FDUcQZkYQxJU2bdoEHDt2rCAgoWdrCnx8fNpFRUWBK0omtnpi2SL84YWlIr3kOK48z4AVK1Y8/uTJk9awUNCujC8Q7OTjO0jTtFYikRxTqVRQPch6ZUCBxo0b979y5co8mUxWSq1W03Ab2tTgsylYSXWJwoLbScWybGKbNm2GnThxwhr1lMkqL1OmzN6XL192BtbQYe1Md0lguiFTpkyZQy9evPDhGbBdu3YT4uLi5oA1R0cOYHpeINwrKJY87Ny5c+dcW7RoUWADcPXZedq3b9/uxIkTG9VqdXlUugptbqYSqoastUJqEadWq5UymSx20KBBI1atWmXxCOj6zGMW9zyiaboilDTXJdmIT0EALW7duvWYY8eOreIZsHfv3j9s3759K03TPOyecEzy78Sze7H/QypFSkREhFOPHj2sltAsZqd169YtT548+StBEDUkEgkPZ2Eq+h9useM4DoKrUz9leUQNGDAgaMOGDVZrZxZzm5ycXLpWrVq3KYoqDipcRreL6kOo/f39fcLDw2P4B8AV8dNPP51EJZkz8t7DvYJ1FHDt302YMMH5l19+uWmEHcTim1i0aNHXEydOjGQYphFFUTKYLFPxE4J1jmEYLcMwYBjYsXnz5l/8/f1fW/ykGGGAAmQlhGUCJP0XDIiHoSF0QeE7xbJly1qOGjXqKv/AsWPHKrq7uwMjgcGAv8QxbMgtAQ3BrglOoVatWg1KTEzcaoRxFIgmDh48WLxv377z3rx54ytgjKaH/+UXAWQyGYic4Ga4U6pUqbDIyMidbm5u5h09kIfEnDVr1rczZ848pVar+TQkXbo90guFg42TSCTvkpKS6oMfHefYFIlEUlGr1fLfZdQYNjYAP7yWkpLiVLlyZWtIkgGT7ufn1zIiIiKcIIiqYDmTSqUkWEfxEzEzETWzudGlg+B1+3AUN0iJIUnyvVarPdCrV6+fd+zYcd+AYVhvJQiiSZMm427dujVfqVRKcAOMeP7g/0LNRFYqlT7WaDRf83yGqPgprm9iYmLiLDAU6Kmf8NVdYmJiWnh6ej4oCLNx+fLlr2bPnt2Mpun3v/32W46yQXbs2FF2zpw5A2/cuDEWTkOwoKGkaDSRYispHhQP9BZj+OiaA9z5izZWiqIA20et1Wrv1qxZc9acOXMO9+jR42NO5tDX17f6mzdvKk2ZMuWOh4dHgdEdCxcufDc1NbUG7kFAc4O5HdJtKRRFaTt06DAoOjp68xcMCEfp1KlTT0IIowHWubSRI0e6LV++HFLxLfKKj4+XXLlypf727ds7JiUlDZPJZIB8rHJ0dJybmJi4OKeDHjt2rP2qVauWq1SqpiRJAsYMiKVf5GZiuJtfqAf4u3WhGMB3uMEHYBA4DgoXaf+hKGrfkCFDFq5Zs+ZhTsfg4ODgl5SU9ItEIimm1Wo/ODo6hvbv3/9kly5d7leoUOFzZVMLvLZt21apT58+UMa8BCS0wxBxVQ0xIMwfSB5CFoQyNDTUdcyYMfwGnn4CRkdHf925c+frLMsCQhr/vR7hUuoGDRqMvH79+jpLo29MTEzloKCgbnfu3Bmr0WjKgKgol8spATsHssE1LMumxMTEtPX09MyxqX769OkNZ86cCa6gJnK5vIRKpZJCTUKGYXRa1lByJx4ymJFfEQrpSKVSrVqtBsPKsQkTJsxesGDBnZzO2fnz50s6OjpulUgkzgzDABoYBbHCkC8IwcYajeZVo0aNVi5YsGCPJUpJ/v7+zbZs2XKKpulCQoRY+gYJH/D5EHgJpMaPsbGx9du1a8eH9H0xuTY2NklqtboJBJQicSULZzFM7PWzZ8+2cXBwMPsyVJGRkfSFCxeqHzhwwPf27dsjCIIoBeGxAiPwxAV9Ci4h3k9LEMSbgwcPtujUqZNR9Ke5c+dW3bp1q9uff/457FNdmGpw4gpOfIiy5+cLRygAsRROOXTBbgtMACjm8E8ikSi1Wu3TOnXqbOjQocOesLAwo/Tz3LlzZVu0aBFFUVQjIQULQJ75bmCnAOQOQufe16pVa3WHDh32//DDDylOTk4WAWnp4OAwIikpaTFJklLEJ2IUCfg/zJegh7NlypSJevHiRTc0X18wYMOGDRdcu3ZtnDg3MJOdEna7f8LCwtqOHj36Rk531Px6fv/+/WVnzJjhePny5YkEQdQBnFSapiE9i0I7m1j/gr4K+hUYMj4sWLDAa/z48eeNNYakpKRChw4dqvbTTz+NJ0myPkmSEGkPp4xMJpPRsEkig5mwMcBiZwedVQIAAB4aSURBVDiOg/AxsGIC3uulsWPHznVxcXnavXt3o7kVhGqw+z65LGrrwkBBkVMouFuoBssIMBYvq1atunn69Om/9e/fP9lcy9wlJCQUcXZ2BtULaPB558G8BxlIkBo3N7cx8fHxq3Qy4MyZM1v+9NNPx2matjGg+quqefPmIRcuXAg11uLLi3YiIyNlBw4cqL1nz56A1NRUH5qmKwDatVwup3VBNOJBtgiqHwtSAN1K4e3tPeTQoUM7cqP/AIV4+vTpIvfv37eVy+U2KpXK7t27d3Zg/pZKpWobG5s0Ozu712XLlk1t2LBhKiCXu7m5/f9oNFKnAgICmm7bti1So9FUgXqJ6LTD9VRdlliwK0AmgODs19I0/bFQoULx7u7uqydMmHC5VatWZpVfOHXq1LqzZs1KpCgKDGi8uCmWFvGcWgCxYhgmdenSpY6jRo1Kj6v94gQEK1+TJk1AKef9gXrogLxERBDEPY7j6ppDybLNmzeXjIiIqJuQkDD348eP9oDlD5ZfUF5wfUpXcjJu6MBhGlBwAkmSqhYtWizcsWPHnGrVqlmULw1O5DFjxvyQkJCwgCCI4hKJhEaiL2600xVLjJ8OaF0xDANxj4AtoyJJ8kGHDh2Cu3fvfn3gwIHmUldiO0VR37Msy4Mw4esFF8URbWiaBpXg0c2bNxvY29unW5z/o+A3a9Zs2cWLF4cLCvV/8gJ1bKR8fuDChQudgoODTTZi/pdffqk1bdq0sSRJenAcV0EAUIVUoQzDh/Q9NPBYP5qmNRqN5p8VK1Z0GjFixCV92zDl+1atWvXNsGHDIiUSCWT7A+SGzpjH7IxBOCWgqKeaZdmXYJ1duHDhqqCgoLvZaS8vntm2bVvRfv36XWNZtjIufup6N8aYak9Pz4CYmJgvJKT/LL7hw4e3W7du3UGNRiPTJ2VGOCVV33//vZ8pAjUNHDiw5v79+4e8efOmL8MwJYSAaJ2wATmZPNx3WrhwYSY1NVUxaNCgQbNmzTpYrlw5HlDF3C4Izh86dKjHmjVrthQuXLhEamoqD7VhgJtKryFj6wxiUbVSqfRtsWLFtnbr1m3d+vXrTY4Rg4KC6oWGhoK+z9dUyexCQRNyuRxyaB3nz5//Rejmfxjw8OHDVTt06HCdpunCGZnAdbyQkclkdy5fvuxib2+f77J8YmKi7YoVK77ZsWPHDBsbG0elUlmSJEmJjY0NqVAoeIuU2HqYFSEz+h2Pm7WzsyM+fvyIRHcwOYNB5MXOnTu79ezZ06xOw507d9bt2bMn7NZgZADgYT6xGI3RABUlS9Li6W62traEQqHgGdHW1vaNQqE43qVLl7nDhg277+npaRIbWdWqVZc8fPhwuEQikeAW6IwG+lm7YV+cPn3a3sXF5QscJZ3il42Nzd8ajaYSpFdkSb3PN0B824eJEyd6zp49G2qp58sVGRlZYvHixc7nzp0LJkmyAWwiUFIaQr2A4RAcgDHru4MEgBzeMGikG8JCAkAmuVzOqFQq1bfffjtr3rx5EW5ubjl2fOcmcRMSEipMmjSpU2Ji4hypVFpMpVLRsHHBWHC6GZOG4vEAPUGiUKlUsK40DMN84DjusqOj44KZM2cm5icjbt26tWbfvn2hUnJpfdQX4XSHzeS0QqFoKx6rTgb09fX1271792aUnpTZhGPxi9qKFSvuefLkyQ+5uUB0tX3gwIFSa9eubXT8+PFFaWlpEBZkS5IkH1EiFqPh/ygDXIjNy3F3CxUqxDObOPQIMaNgAdNC3OXo0aP7BgYG/lG3bl2juQVyPAAo8PDggU1YWJjTsmXLfqUoqizHceDbSgcYwg0LwHwghqal5TzIBeYDD5fT5XcG+sGJCIwok8kutG3bdtqoUaPu5EcxmKZNm464evVqKPg+9cF8FTaqtOHDh7dduXLlf9xUOhkwNja2ipeX1w2WZYsYkLUNRPp37969jt26dfvLGIsiqzZiYmLKDBgwoPvTp09HcBxXjaZpOcMwfFYyTCqCBESTjNdp0NPCm1UXvvhdEJ/479BnYHa4IBQJSlJBKJhUKn3v7e09YsKECeecnJzytcrUuXPnKq1atarxli1bVsnl8tIajQZcCzy2JdAQaKZrXAYRJoubxacpMDdsjqKSCLykJZPJIKIHalJcrVmz5ooFCxYcyytofMH3d4kkyeqwOekpBbByufzxqVOnmjo6Ov5n083QAti8efOFFy5cgEDhz6EfGVyoE8Jf5eDBg7uuX78+xpgTJG4LdutPsYZuJ0+enE/TNJx4POPBfWLGEoPkwGkFeiBsLOJA5ez0GbUhfg+esYBOXRCBhfsgGFrLcdxHDw+P6SNHjjzj4+NzJa/cOIDe/Ntvv9n/+uuvTsePH/+Z4ziIb02P+MElBF00QTQ2Bv2QQQdoBNIUzA26cJqK3ELoRARz/iVPT8/Zo0ePvpjbJ+LQoUMbfipCmqBUKiH3T99L4+LiMvz06dPrdT2QIQOOHTu2dVhYGDASD1eY2YVNBJiTb1y/fv1be3t7MEAY9QKR0t/fv/HWrVtXcRzXAKDgwVKHGA93hsKEoSRIseMc7tfHwmtI5+Ed8H4klqD2cesoohO2ScBCgggRPhl25MiRgR06dPjL29vb6O6c5ORk+Y0bNyodP3682vLly9fRNF1WKLNNo/JqOF1QrCmOkIAAu1CEiyH0yepefD7EQQ8ZBYUIcacQXA4n4h9du3YN3rNnz83c2shomo5nGMYZVH09Nx+YXyhm1CKjxPUMGTAlJcW2cuXKj8HpCutVHG2PEwx9huROhmHeDhs2DDIkrmZFdEN+h2Dln3/+eTmEZdE0XRSMK7khRhrSJ2Pci42BFYqeAODVx6ZNm65r0aLFBTc3t8fg1ihZsuRHSGWBU0II7QLxELImwCf3xTyC2Pjhwwdb+Hf8+PHKiYmJLS5duhSg1WpthOgVkIthTkl99BhjjDO32hCYFRAatCqVCiyMMYGBgb+sXbs22ZjvnDp1ao1Zs2aBDlcC6C0G3MWTboGmwmYFKscDjuNqg/ph0AkIN0N0wrFjx+aq1epMFzvMP+oQ1Ito0KDBjKtXr843Rpzf9u3bq4eEhIx4+PBhP4jQAdQocI+YCpyDsSYZuUaE2FOwHkEgNafRaMQTB7sqf4ILmyIPJYkX1oEFgszjYAEWAIL5TRSYDkEQGqvv+d0O5pfkbGxsNEql8nXt2rWXh4SEbPH39zcKZlH9+vVH3r17d5FWq003vuBSFk4DLAFa5e7u3uvIkSN7MqJRplEgERERTfz8/BIFUS9LOqOUe5Ik3y5ZssQ1JwHa586dKxoYGOh39erVyVCFVi6XS8UxmpbAhGgS0a4JRMZFZhEkJM98GVzpcwltokMRWWaROI4zL/7OLCfXRG9A4xQlMYM0AZE19xs1ajR148aNMQ4ODtk22QrB56dIkiwnk8kgJU0ncBkikWAxBt/fv5GRkc169OiRIZp4lmFYRYoUuZKamtoArD4ZlS+DFyNdBxaMXC5Xp6am7gLAtezM2/z587+ZOHEiZAw3kMlkNmq1mg99ykyny857TPkZASIw3XeJMw58xsSc9GHoslgLgEtflJsz5XFnp28o5QfGL0oHgmD0VJIkE+fMmTNq8uTJ2UL2pihqk0wm66lUKnl7CLwD5ge3qouNcOCjL1as2G+vX7/uk9mYsmTAYcOGdf8UCxhB07QMGsJym/h2cWsfrs8QBPF0586dbXr27GmQS8Le3r7f7du3f2YYpiL4IWGh4bs3OiGgH5agA+KTA5MI9MRxW3D6iidSl48T3aOLGbOybmZn8ef3M7qMabAuBOAwvpQ2xOeq1eqXjRs3/nnv3r3bDAmUBxWod+/eUPsdkrLTgavRuNH7dbgkUoOCglqHhoZezBEDgpXRxsbmuUqlgjhK/iSCCyYYF5Vwq5Cgm0BmwOizZ8+u1WeSli1bVmnUqFFrZTKZi1qtLownwaLn4R3AkEi/MbYlU59+5sY94nEgC6Q4xUUXU2XGhGiDRPdklO2RG2PK6zZR9AyMEYf/R7YJyEagKEqp0WiurFixoteIESP08r+2aNFi0Llz51ZIJBI5yg3FMz5wizDGG6xMJnsQExNTJ6uUsCxPQCDkgAEDfH799VeohsqfgvjEwkuRmVhUgATAR55t2rTJtX///pmegp06dWpz8OBBSFKsIWBmps8fEBYREV+AlsJ8MFBxOJuuxSvW69A9mUkBGdFIXGogr5nFmO/DxU/ULo5aIJIgkJHmca9evfx27NiRKZZRZGRktR49egDkBOSK/gclQkxfzBWl6t+/f+dNmzbFZjVWvRgQIgDatGnzgGXZEgj9V5wPhycfohOSoihVpUqVJj569Gipro5AXbXu3buPvnPnzhi5XF4c4g7x+3RFGmSWb5bVYE3xdzED4QsmI/Ezo+91uYrQXOh6xpJE+MwC7PEwOqDHZ0M686FkyZJbDh06NFNXhArcV7FixWnPnj0LYVmW1/1wox++NkUoghBk8eLatWtNGjRokCU6nF4MCC93cXEZ8SkjOxR0QbFzNpOFDSb0q5s3b+4sNgcDCJSfn9+y9+/ft4OxifFpTJFZrH2yKAqARVlpZ2cXs2/fvh/FUIo7d+6s0bNnz9MEQZTLbG3qCBpQtW7devDJkyf1AqzWmwGjoqLgOE5SKpW8Y96Aqfjg6enZNyYmZj96Ji4urrqHh8cRmqa/FqIxDGjOequVAsajAEhpLMveOnDgQKfOnTun+wxr1qz5071790JwtSurtwqxvoCV21xfpDxDGInw9vYedOTIkZUsCzrm/6t9ZtExcCjf3rFjR3so5LJ+/fq6gwcPjpbJZJXUavXnSGXrZaVAPlFAOMHUEonkr6VLl3oOHz48Ze3ateVHjBhxhWXZ0vrkxCLjIMuyand390GxsbF6nX4wZIMYEJJ1fXx8Lmo0Gr1PQUE+ftuzZ88BXbp0udy/f/84lUr1BaBPPtHe+lorBXAKqAoVKnR/yZIl32/atKntp6RuKK5qawCJwMr6Ojo6+tsOHTronfNpEANCZzw8PAacOXNmtUKhSLeI6tFJyIV7JVgxS8lkMilkBlhCJIseY7feYuIUwNKtVARBKACWEwCq8SD1jIaAWUJVHTp0GHj48OHthgzXYAY8depUeVdX12sSiQQsol8giel6MXRQyCsD/EyyaNGi1Lt3Zo/hawiNrfeaOAWQNTg7VmFY3+Bj1Gq1/8bGxjZDiNf6DtlgBoSGGzduPOHKlSsz9UlVgvvFAwMTLjAlnvulb4et91kpYEwK6HIn6FmcCO8GlOr7SRBbDepethgQ3kDT9F8Mw0CJpUwTdsX+p7zCFTGICtabCywFcN8pYjwDT0Ioz/A0ISGhSUb+xMyIm20GnDBhgsPChQuPQTY1KqtlrCzzArsarAM3SQqgQ0OcpCzkZaYGBwe3X7Ro0dnsdD7bDCi8DFKVmgPEAb5r4MGw2emU9RkrBUyFArCWIcQSqUu4+01AbEviOK5VdvubIwZcsWKF/ciRI09zHAdQ9jxIDfoHHc6GLJ3dcVifs1IgVykATAgXpCAJTAhRXv/u2LHDpVevXrez+/IcMSC81NHRcfjFixchUxjCyfgLmWYtKWA6uwS2PmfeFMgI+QwyK+rXrz/x2rVry3Iywhwz4M2bN2X29vZ/fkparIrKmkGsqDhBMSedtD5rpUB+UQAP5MayLKAg0YOkpCSHnNbFzDEDAmHGjh3rEBYWFo/D2Ysj0POLgNb3WilgDAqgAwUQ16Ae5OTJk91nz56dlNO2jcKAQifACtQMZbEbAOib0zFYn7dSINcogLsmBEMjlCZPJAiijTFeajQGhAKSXl5efwqY+frWlDDGGKxtWCmQqxTA9EAQPV8kJCQ0d3Z2NkodQ6MxIFAgMDDQde3atYcoiioEILpwCordE5DWr6O4Za4S0Nq4lQIZUQCtT11rEnfSAwgwADz169fPe9OmTZAnaJTLqAwIPapbt+68W7dujYV8JVSNCEXD4GCmViONUebP2ogRKICvRQRxAc0iNUqAWlF/8803S+/cuTPBCK9Mb8LoDBgbG1usXbt21wmCqAAgukiG1oUbY2DIjzHHbW3LSgGeAvgaxDGN4LBAa5dlWajj8TQ2NtbF0GDrrMhsdAaEFy5cuLDh1KlTT6lUqqIo5xDfZYxdYTWrQVp/t1IgKwqIAMXSkfcAglUikfwbGhrqlhOg6YzenysMCC8bPHiwz/r163fK5XJbBGCKV8LB4dyyIo71dysFcpMCuK6HM6JcLodaJwo/P7/OW7duPZ4bfcg1BhQ6CwVa6qFSvnAKwoVwPa0iaG5MqbVNQyiAr0F8fQoSm4am6QsMwzgZ0qYh9+YqA0KUTMOGDR8xDFNKKpXSAJiKwHxxJdeQDlvvtVLA2BRARkJgRrBVCLoflI17cu3atVq5UWoPjSFXGRBeEh4e3iAgIOAURVFFIYMevdhqBTX2MrK2l10KiNciRQHQA/smPDzcLSAgAAyKuXblOgNCz4cOHdp69erVB6VSaWGNRsO/02qIybU5tTZsAAXEtU0AWpBhmNThw4d7rly5Mls5fga83jBUNEMaFt/r5+fnGxERsZWiKBsAu0E+wpy0aX3WSgFjUEDAdQHbBDjbVb6+voN37969zRhtZ9VGnpyAqBO1atVamJycPAqqmclkMhJ0QmvMaFZTZP09tykgoPNxUqlUU61atbV37twJgkKzuf1eaD9PGVAY0A2ZTFbbCsqbF9NrfYeeFICTT0tRFOAc2WdUTlrPtgy6Lc8Z8PTp08V9fX13vXz50lUul0vwIocG9dx6s5UCRqAA1A+ESi00TafExcW5urm5PTZCs3o3kecMCD0DJnRxcbkMBWig4KjevbXeaKWA8SmgFZivlZub23PjN595i/nCgNAlSF/q0qXLdZVKVTYraMO8Jor1fQWCAiB2MjKZ7Onhw4dbubu7pxdmycvR5xsDwiC3bdtWr0+fPjFCCSjrSZiXM1+w38XrfARBPN68ebOXv7//3fwiR74yIDoJO3TocI2iqHIgiusCR4XvIHwto/zC/CKe9b35TwFd+abgVgDnOipVLQKDBkgJRqvVPjp16pSzq6vrs/wcRb4zIHYSHiMIojSIoxnFiKJSzsCIKL0pP4lnfbfpUABVyEV13FHPcGQ+SKqF1KJPVdcf7d2717Nbt26Zlk7Pi9GZBAPCQA8dOlSpc+fOF6RSaWmlUkkjwkHEDDjt4RREznsr4FNeLA3zeYd4PQBuJ5x+CERX8DUjsfN+dHS0Z8eOHf82hRGaDAMCMU6dOlXay8vrSFpaWiMbGxtaqVSm0wjfyTKqkW4KBLX2Ie8pIF4PolOPYFmWo2lawzDM3VOnTrV1dXV9lfe91P1Gk2JA6GJiYmJFJyensxzHlZdIJDRUKEVR6vAXdjXEmNZ0JlNZRvnXD3wNQEQLSEkghqKsG47joHCmmmXZa3FxcT7iWvD51/PPbzY5BkQEsbe3X3/z5s1+ELYmlUr5sDXxlRFqcX4T1fr+vKNARmtAMOaxJEmm2dvbh964cWNG3vVK/zeZLAPCELp27Tr0yJEji5VKpZyiKB5lDf5Za07oP8EF5U60JkD8FNAWGLlc/r5jx4799+zZE2WqdDBpBgSiBQQEdNm+fft2tVptS9M0hSVMWhnRVFdVHvYLMR76i0LLZDLZi969e/uEh4dfysPuGPwqk2dAGNH8+fMdJk6cCG4KOwCywhMoxZACCO7CekoavBZM8gFkUMGg4dEJx/cXzb8ginJQMoxl2QfLli3zGTFiRL452PUlplkwIAwGLKSurq6AMVMajDNarZbEJwUUcCiJZs2013fqzec+8YYLTCkuAARZ7HK5XKFQKBJOnz7t5+Li8sYcRmg2DIiI6eHhMSkuLu4nmUxmo1arSXEJNGsJbHNYdob1ES+KiUs8wtxzNjY2jFKpfOPp6RkQExMTbVjr+Xu32TEgkGvevHmukyZNOkgQRCEUyI2AVJGLwmohzd+FZey3i3FlQdVgGAasnACa+3DRokVdgoODs10o09j91bc9s2RAGNyePXvq9ujRI1ar1ZaWy+VSlUqVPhbQ/8AXZA1X03cZmO596MQTYwhRFAWFUhQcx53ftWtXf19f3zzN4zMWxcyWAREBAgIC/MLDw9dLpVJbjUZjrcpkrJVhgu0IoihAR2i1Wu2zfv369dq8efMZE+yq3l0yewaEke7YsaNhr169Dkul0lIajUYKoE8golgjZfReByZ/I+h7cOoxDKOUy+WHDx06FOzu7m4S8Zw5IZ5FMCAiQK9evb7ftWvXOrVaDe4K2pQjfXIyaQXtWalUymo+h0KlDBkypM+6devOWwoNLIoBYVJ279799cyZM8dfvXp1AEVRcgADxi2lyDijy10Bv0GkDeiP1su4FBDX4YPWcXqLc/jgd6lUCulDcOq9a9269bQZM2b87ubm9o9xe5a/rVkcAyJyhoSEtJo9e3YEQRBlKYqSkiTEdFN8mgpiSPRXl6gqdm/k7zSZ79vRRie2SuOBEnCPOI9PJpMxarVaQRBE0owZM4bOmDHD7Cyc+syaxTIgGvyAAQM6/PrrrxtJkizFcRyIpRTKMYTTToyMDAsBMaRVh9RnCWV+j5iGuOSBn4AQSAEIeZC9IKQOpQQGBvqtXbs2Kee9MN0WLJ4BgfRJSUmF+vfvP+zOnTvjJRJJMYVCIUVxpfjUoMUhALWa7qyZac+A4eDC3UPYycinDXEc97px48azFy9ebHHipq5pKxAMiAYeGRlZceXKlW1Pnjw5jyCIUgIkIiVeGCijGp6zInfnjNvx2usomwWkDpBChKAJKICp0Wq1r93d3YPGjRt3omPHjnkOD5izUWb/6QLFgIhMx44dqzhz5szuJ0+enEbT9FefcVnpdGMN2qGtemD2Fxb+JC7SYwnVwHjgz3vt6uo6PiQk5JSnp2eKcd5oPq0USAZE0xMdHV1uzJgxg+/fvz+MYZjiQs0KCnyIoAtaA7uNs5CxWE7AZQETs0Ymk/1btWrVxUuWLPnN29vbLKNYjEGdAs2AiIAxMTFlfv/9d4fw8PDlDMOA1dQGTKaQcWEMIhfkNlCaEE3TEDqmYhgmJSAg4MepU6deqVGjxruCTBsYu3WBiVZAUFBQs02bNk1//fq1ixDsLYFKTpB5gd+KjAdisKiMdEaE3IX0IFNZeHj/Ubyl2GUgzsmDvuPjxzE4sYx0uAeceFD0JK1ixYpRffv2Xdq9e/frDg4OeVJ5yFRonFk/rAyYAXU+ZeHX2r17d4sDBw78otFoSn5KwoBTkc6otiEsQtAdEXiwAIuQvlBxxjRV3VK8mcCmAd+hsD4gFe6m0aXngd0KQsY4jgOL5r/ffffdpL59+57v0qXLPXNgiLzuo5UB9aD41KlT6548edL99OnT48F6StO0HNDagBnhL2oCZWGgrHy8aeRvNDXLKjKQiP2hKOkV+mtnZ0d8/PiRHw6emyeMj5PL5ZxKpQL9TkNR1Lv27dtPb9WqVeK0adNukCQJ31uvDChgZUADlsa5c+eKbty4scmGDRt+IUmyOsuyEHNqA+4MiUSSrjPCIkWRHRmFteGimgFdyNVbRfAO6e/SEb4Hpxw66QACAtKCUsLCwoa1bdv2r0aNGr3M1Y5aUONWBszmZN68eVO2devWKn/88Ufz48ePB9E0/TXDMMCQODOScCqCaGrK8aW6dDyk50G/hYghSAPi1Go1GFNAh3szYMCA0XXr1k12cHD4083NDSDfrZeBFLAyoIEEy+j2pUuX1tqxY4fLw4cP27548aINSZJF5HK5HGD2wdgl+BlJPObRFHRBDMA2XbxElkvQ56CQCYSGcRyn+eqrr863atUqYty4cedq1qz5d+XKlSFW03rlgAJWBswB8TJ69ODBg8UfP35cfsuWLc3++OMP8DGW4zguXVwFFwdkaYis0PhcoM+5MT9inQz9H/4ChDtkHzAQnUKS5DsfH58QLy+va/Xq1Xvu5ORkFS2NvF5yY4KN3EXzbw7E1aNHj1a6detW6VevXhV/9epV9YcPHzZ58uSJC8dxMiEkDuYCmBIYAT7DX6iZiL6Hvxkxpi5DB3J64wwGTnAx43O2trbqhg0bri9VqtSDOnXqPKpQocI7Z2fnx46Ojq/Nn/qmPQIrA5rQ/MyYMYOqV6+e5M8//yyqUCg07969s1OpVNSrV69sAJ4fugpW1/fv30tLliypevXqlaREiRJqjUYDyGB8bCX6C0aSsmXLpkkkEk6pVFLgyyxevHha9erVQX/TBAYGWn1xJjD3/wOJwZ3XrxBk4QAAAABJRU5ErkJggg==;" vertex="1" parent="1">
          <mxGeometry x="434" y="120" width="90" height="90" as="geometry" />
        </mxCell>
        <mxCell id="z3Stc2P_Pukjor2fuixF-4" value="&lt;h1&gt;USUÃRIO&lt;/h1&gt;" style="text;html=1;align=center;verticalAlign=middle;whiteSpace=wrap;rounded=0;fontFamily=Lucida Console;" vertex="1" parent="1">
          <mxGeometry x="304" y="150" width="110" height="30" as="geometry" />
        </mxCell>
        <mxCell id="z3Stc2P_Pukjor2fuixF-6" value="&lt;h4&gt;EMAIL&lt;/h4&gt;" style="text;html=1;align=center;verticalAlign=middle;whiteSpace=wrap;rounded=0;fontFamily=Lucida Console;" vertex="1" parent="1">
          <mxGeometry x="304" y="240" width="60" height="30" as="geometry" />
        </mxCell>
        <mxCell id="z3Stc2P_Pukjor2fuixF-7" value="&lt;h4&gt;SENHA&lt;/h4&gt;" style="text;html=1;align=center;verticalAlign=middle;whiteSpace=wrap;rounded=0;fontFamily=Lucida Console;" vertex="1" parent="1">
          <mxGeometry x="304" y="290" width="60" height="30" as="geometry" />
        </mxCell>
        <mxCell id="z3Stc2P_Pukjor2fuixF-9" value="&lt;h4&gt;sobre vocÃª:&lt;/h4&gt;" style="text;html=1;align=center;verticalAlign=middle;whiteSpace=wrap;rounded=0;fontFamily=Lucida Console;" vertex="1" parent="1">
          <mxGeometry x="291" y="360" width="86" height="30" as="geometry" />
        </mxCell>
        <mxCell id="z3Stc2P_Pukjor2fuixF-12" value="&lt;h4&gt;@email.com&lt;/h4&gt;" style="shape=step;perimeter=stepPerimeter;whiteSpace=wrap;html=1;fixedSize=1;fontFamily=Lucida Console;size=10;" vertex="1" parent="1">
          <mxGeometry x="380" y="240" width="100" height="30" as="geometry" />
        </mxCell>
        <mxCell id="z3Stc2P_Pukjor2fuixF-13" value="&lt;h4&gt;*******&lt;/h4&gt;" style="shape=step;perimeter=stepPerimeter;whiteSpace=wrap;html=1;fixedSize=1;fontFamily=Lucida Console;size=10;" vertex="1" parent="1">
          <mxGeometry x="380" y="290" width="100" height="30" as="geometry" />
        </mxCell>
        <mxCell id="z3Stc2P_Pukjor2fuixF-15" value="&lt;h4&gt;MUDAR&lt;/h4&gt;" style="text;html=1;align=center;verticalAlign=middle;whiteSpace=wrap;rounded=0;fontFamily=Lucida Console;" vertex="1" parent="1">
          <mxGeometry x="480" y="240" width="60" height="30" as="geometry" />
        </mxCell>
        <mxCell id="z3Stc2P_Pukjor2fuixF-16" value="&lt;h4&gt;MUDAR&lt;/h4&gt;" style="text;html=1;align=center;verticalAlign=middle;whiteSpace=wrap;rounded=0;fontFamily=Lucida Console;" vertex="1" parent="1">
          <mxGeometry x="480" y="290" width="60" height="30" as="geometry" />
        </mxCell>
        <mxCell id="z3Stc2P_Pukjor2fuixF-18" value="" style="rounded=1;whiteSpace=wrap;html=1;" vertex="1" parent="1">
          <mxGeometry x="306" y="400" width="216" height="50" as="geometry" />
        </mxCell>
        <mxCell id="z3Stc2P_Pukjor2fuixF-19" value="&lt;h4&gt;VOLTAR&lt;/h4&gt;" style="rounded=0;whiteSpace=wrap;html=1;fontFamily=Lucida Console;fillColor=#660000;" vertex="1" parent="1">
          <mxGeometry x="299" y="490" width="71" height="30" as="geometry" />
        </mxCell>
        <mxCell id="z3Stc2P_Pukjor2fuixF-20" value="&lt;h4&gt;PRÃXIMO&lt;/h4&gt;" style="rounded=0;whiteSpace=wrap;html=1;fontFamily=Lucida Console;fillColor=#660000;" vertex="1" parent="1">
          <mxGeometry x="453" y="490" width="71" height="30" as="geometry" />
        </mxCell>
      </root>
    </mxGraphModel>
  </diagram>
</mxfile>
